<svg xmlns="http://www.w3.org/2000/svg" width="208.807" height="27.706" viewBox="0 0 208.807 27.706"><defs><style>.a,.c{fill:none;stroke-width:2px;}.a,.b,.c{stroke:#fff;}.b,.d{fill:#fff;}.b{stroke-width:0.5px;}.c{stroke-linecap:round;stroke-linejoin:round;}</style></defs><g transform="translate(-114.234 -2322)"><path class="a" d="M18.9,31.987V21.964h4.232l.664-4.3H18.9v-2.35c0-1.787.582-3.373,2.254-3.373h2.684V8.189a22.889,22.889,0,0,0-3.355-.2c-3.937,0-6.245,2.08-6.245,6.817v2.862H10.2v4.3h4.047v9.987L15,31.939Z" transform="translate(153.305 2315.514)"/><path class="b" d="M20.108,5.6a6.353,6.353,0,0,0-6.337,6.338,5.448,5.448,0,0,0,.042.651,16.115,16.115,0,0,1-10.8-5.78.587.587,0,0,0-.96.085,6.4,6.4,0,0,0-.84,3.165,6.275,6.275,0,0,0,1.246,3.7c-.145-.059-.313-.051-.455-.121a.587.587,0,0,0-.849.525v.06a6.315,6.315,0,0,0,2.767,5.18c-.03,0-.059,0-.088-.009a.587.587,0,0,0-.653.764,6.418,6.418,0,0,0,4.444,4.2A11,11,0,0,1,2.036,25.9,9.736,9.736,0,0,1,.77,25.85a.587.587,0,0,0-.4,1.076A16.933,16.933,0,0,0,9.546,29.6a16.455,16.455,0,0,0,12.639-5.553,17.625,17.625,0,0,0,4.378-11.464v-.5a12.048,12.048,0,0,0,2.78-2.939.587.587,0,0,0-.73-.856c-.31.138-.668.17-.99.277a6.219,6.219,0,0,0,.966-1.792.587.587,0,0,0-.853-.685,12.077,12.077,0,0,1-3.31,1.278A6.367,6.367,0,0,0,20.108,5.6Zm0,1.174a5.271,5.271,0,0,1,3.8,1.637.587.587,0,0,0,.551.17,13.888,13.888,0,0,0,2.213-.689,5.243,5.243,0,0,1-1.467,1.372.587.587,0,0,0,.39,1.084,14.953,14.953,0,0,0,1.666-.469,11.864,11.864,0,0,1-1.632,1.469.587.587,0,0,0-.24.472v.763A16.507,16.507,0,0,1,21.3,23.27,15.213,15.213,0,0,1,9.546,28.426,15.691,15.691,0,0,1,2.949,27a12.387,12.387,0,0,0,6.6-2.505.64.64,0,0,0-.415-1.112,5.048,5.048,0,0,1-4.394-2.71c.038,0,.072.011.11.011a6.952,6.952,0,0,0,1.669-.194.587.587,0,0,0-.015-1.143A5.221,5.221,0,0,1,2.478,15.07a7.456,7.456,0,0,0,1.868.387.587.587,0,0,0,.362-1.074A5.04,5.04,0,0,1,2.772,8.208a17.118,17.118,0,0,0,11.675,5.607h.06a.587.587,0,0,0,.593-.747,3.95,3.95,0,0,1-.154-1.13A5.166,5.166,0,0,1,20.108,6.773Z" transform="translate(114.402 2317.9)"/><g transform="translate(222.5 2296.5)"><rect class="c" width="34.667" height="24" rx="5" transform="translate(17.5 27.5)"/><path class="d" d="M52.067,45.2a1.133,1.133,0,0,1,0,2.017l-3.542,1.825-3.876,1.989a1.133,1.133,0,0,1-1.649-1V42.394a1.133,1.133,0,0,1,1.649-1.009l3.876,1.995Z" transform="translate(-12.203 -6.713)"/></g><path class="d" d="M6.966,0A6.98,6.98,0,0,0,0,6.966V17.034A6.98,6.98,0,0,0,6.966,24H17.034A6.98,6.98,0,0,0,24,17.034V6.966A6.98,6.98,0,0,0,17.034,0Zm0,1.846H17.034a5.105,5.105,0,0,1,5.12,5.12V17.034a5.105,5.105,0,0,1-5.12,5.12H6.966a5.105,5.105,0,0,1-5.12-5.12V6.966A5.105,5.105,0,0,1,6.966,1.846ZM18.923,3.692a1.385,1.385,0,1,0,1.385,1.385A1.385,1.385,0,0,0,18.923,3.692ZM12,5.538A6.462,6.462,0,1,0,18.462,12,6.474,6.474,0,0,0,12,5.538Zm0,1.846A4.615,4.615,0,1,1,7.385,12,4.6,4.6,0,0,1,12,7.385Z" transform="translate(196 2324)"/><g transform="translate(291.857 2317.668)"><path class="d" d="M38.971,40.124c-1.535,1.535-5.439.121-8.716-3.156s-4.692-7.181-3.156-8.716l1.59-1.59a.71.71,0,0,1,1.008,0l1.627,1.627a.71.71,0,0,1,0,1.008l-1.1,1.1c-.856.856-.1,3.023,1.718,4.85s4.037,2.616,4.893,1.76l1.1-1.106a.71.71,0,0,1,1.008,0l1.627,1.627a.71.71,0,0,1,0,1.008Z" transform="translate(-15.311 -15.408)"/><path class="d" d="M7.889,28.316a14.047,14.047,0,0,0,8.237,3.666,13.8,13.8,0,0,0,7.721-1.572A13.847,13.847,0,0,0,15.731,4.431,13.852,13.852,0,0,0,4.041,22.082a14.786,14.786,0,0,0,.9,2.282v-.916c-.782,1.506-1.566,3-2.348,4.51-.115.218-.224.432-.34.65a.919.919,0,0,0,1.025,1.335l4.813-1.22c.224-.055.455-.115.679-.17a.913.913,0,1,0-.485-1.76l-4.813,1.22c-.224.055-.455.115-.679.17l1.025,1.335c.71-1.334,1.408-2.676,2.107-4.024.158-.3.309-.6.467-.893.037-.066.072-.14.109-.206a1.339,1.339,0,0,0,.06-.134,1.279,1.279,0,0,0-.183-1.093A12.016,12.016,0,0,1,5.3,18.183c0-.352.012-.71.043-1.062.012-.17.031-.334.049-.5l.018-.128c0,.012-.018.146-.006.037s.031-.194.043-.286a13.063,13.063,0,0,1,.516-2.027l.164-.455c.031-.072.06-.152.091-.224.037-.1-.006.018-.012.031a1.587,1.587,0,0,1,.066-.146c.134-.3.286-.607.443-.9A12.615,12.615,0,0,1,7.8,10.839c.06-.085-.012.012-.018.024l.072-.091L8,10.583c.109-.134.224-.261.34-.395.218-.249.449-.486.692-.716s.51-.467.777-.686L10,8.634c.079-.066-.018.012-.024.018.031-.024.06-.049.1-.072.14-.1.28-.206.418-.3a13.722,13.722,0,0,1,1.73-1l.437-.2c.158-.072-.085.031.079-.031.085-.037.175-.066.261-.1.315-.121.638-.231.965-.321s.662-.175,1-.249c.175-.037.352-.066.528-.1l.249-.037c-.17.024.072-.006.134-.018a12.917,12.917,0,0,1,2.118-.066c.352.018.7.049,1.05.091-.158-.018.031.006.085.012.085.012.164.024.243.043.175.031.352.066.528.1a12.922,12.922,0,0,1,1.949.6c.037.012.231.091.152.06s.115.049.152.066c.17.079.34.158.51.243.3.152.589.309.88.479s.564.352.838.547l.194.14c.031.024.194.146.128.1s.1.079.128.1c.072.06.146.115.212.175A12.83,12.83,0,0,1,26.454,10.3l.309.364.152.188c-.1-.128.043.06.072.1.2.267.383.541.558.825s.358.6.516.9c.072.146.146.286.212.432.037.072.066.146.1.218.018.037.031.072.049.109.006.018.072.17.031.079s.049.121.06.152c.031.072.06.152.085.224.06.164.121.334.175.5.1.321.2.65.28.983s.146.673.2,1.014c.006.055.037.249.012.085.012.085.018.164.031.249.018.183.037.364.049.547a13.5,13.5,0,0,1-.031,2.167c-.006.085-.018.164-.024.249-.006.06-.037.249-.012.091-.024.175-.055.358-.085.535-.06.34-.14.673-.231,1s-.188.65-.3.971c-.055.152-.115.3-.17.455-.012.037-.031.072-.049.115.006-.012.055-.128.012-.031s-.072.17-.115.255a12.691,12.691,0,0,1-.971,1.749c-.085.134-.175.267-.273.395-.049.066-.091.128-.14.194-.024.031-.049.06-.072.1-.085.109.085-.1-.006.006-.212.273-.437.535-.673.79a13.38,13.38,0,0,1-1.457,1.354l-.091.072c.012-.006.109-.085.024-.018-.066.049-.128.1-.194.14-.14.1-.28.2-.424.3-.28.188-.558.358-.85.522s-.589.315-.893.455c-.072.037-.146.066-.218.1-.049.024-.224.091-.079.037-.164.066-.327.128-.492.188a12.975,12.975,0,0,1-2.009.552c-.164.031-.327.055-.492.085s.091-.006-.091.012c-.1.012-.194.024-.292.031-.352.037-.7.055-1.056.06-.407.006-.813,0-1.214-.031-.2-.012-.4-.037-.6-.055-.109-.012-.024,0-.006,0a1.244,1.244,0,0,1-.146-.024l-.34-.055a11.7,11.7,0,0,1-4.383-1.687c-.321-.2-.631-.418-.934-.65-.085-.06-.018-.018,0,0L9.863,27.6c-.072-.06-.146-.121-.218-.183-.158-.134-.309-.267-.461-.407a.918.918,0,0,0-1.295,1.3Z" transform="translate(0 0)"/></g></g></svg>