<svg xmlns="http://www.w3.org/2000/svg" width="26" height="26" viewBox="0 0 26 26"><defs><style>.a{fill:#ff005d;}.b{fill:#fff;}</style></defs><path class="a" d="M13,0A13,13,0,1,1,0,13,13,13,0,0,1,13,0Z"/><g transform="translate(6.101 6.131)"><path class="b" d="M29.63,64a.393.393,0,0,1-.122.283.423.423,0,0,1-.294.117H20.077a.408.408,0,0,1-.415-.4V62H18v2a1.967,1.967,0,0,0,.608,1.416,2.116,2.116,0,0,0,1.468.587h9.138a2.116,2.116,0,0,0,1.468-.587A1.967,1.967,0,0,0,31.291,64V62H29.63Z" transform="translate(-18 -53.189)"/><path class="b" d="M35.177,18v6.877l-1.661-1.6L32.34,24.408l3.08,2.969a.85.85,0,0,0,1.175,0l3.08-2.969L38.5,23.275l-1.661,1.6V18Z" transform="translate(-29.362 -18)"/></g></svg>