<svg xmlns="http://www.w3.org/2000/svg" xmlns:xlink="http://www.w3.org/1999/xlink" width="67.608" height="67.608" viewBox="0 0 67.608 67.608"><defs><style>.a{fill:url(#a);}.b,.c{fill:#fff;}.c{fill-rule:evenodd;}</style><linearGradient id="a" x1="0.705" y1="0.088" x2="0.181" y2="0.878" gradientUnits="objectBoundingBox"><stop offset="0" stop-color="#5ef67a"/><stop offset="1" stop-color="#4bb663"/></linearGradient></defs><circle class="a" cx="33.804" cy="33.804" r="33.804" transform="translate(0 0)"/><g transform="translate(13.237 13.904)"><path class="b" d="M130.172,138.907l2.843-10.607a19.641,19.641,0,1,1,7.82,7.75Zm11.193-6.832.672.4a15.939,15.939,0,1,0-5.453-5.4l.413.676-1.586,5.922Z" transform="translate(-130.172 -99.248)"/><path class="c" d="M151.432,115.485a3.283,3.283,0,0,0-2.8-.632c-.73.3-1.194,1.437-1.668,2.02a.7.7,0,0,1-.9.2,12.711,12.711,0,0,1-6.342-5.432.777.777,0,0,1,.1-1.061,4.267,4.267,0,0,0,1.15-1.871,4.09,4.09,0,0,0-.513-2.213,5.247,5.247,0,0,0-1.635-2.463,2.243,2.243,0,0,0-2.433.362,4.937,4.937,0,0,0-1.71,3.911,5.525,5.525,0,0,0,.154,1.241,10.31,10.31,0,0,0,1.19,2.745,21.946,21.946,0,0,0,1.243,1.889,19.18,19.18,0,0,0,5.39,5.005,16.216,16.216,0,0,0,3.363,1.6,7.455,7.455,0,0,0,3.914.618,4.734,4.734,0,0,0,3.547-2.638,2.3,2.3,0,0,0,.166-1.348C153.44,116.483,152.183,115.932,151.432,115.485Z" transform="translate(-124.174 -93.167)"/></g></svg>