<svg xmlns="http://www.w3.org/2000/svg" xmlns:xlink="http://www.w3.org/1999/xlink" width="70.209" height="67.608" viewBox="0 0 70.209 67.608"><defs><style>.a{fill:url(#a);}.b{fill:#fff;}</style><linearGradient id="a" x1="0.854" y1="0.146" x2="0.146" y2="0.854" gradientUnits="objectBoundingBox"><stop offset="0" stop-color="#3cf"/><stop offset="1" stop-color="#337fff"/></linearGradient></defs><ellipse class="a" cx="35.104" cy="33.804" rx="35.104" ry="33.804" transform="translate(0 0)"/><path class="b" d="M162.814,71.253a15.072,15.072,0,0,1-3.689,1.056c.592-.1,1.464-1.178,1.814-1.614a6.82,6.82,0,0,0,1.224-2.241c.032-.064.055-.145-.007-.193a.21.21,0,0,0-.2.016,18.792,18.792,0,0,1-4.373,1.681.291.291,0,0,1-.3-.08,3.674,3.674,0,0,0-.382-.393,7.733,7.733,0,0,0-2.118-1.3,7.356,7.356,0,0,0-3.25-.526,7.719,7.719,0,0,0-3.083.875,7.94,7.94,0,0,0-2.486,2.039,7.664,7.664,0,0,0-1.484,2.985,8.129,8.129,0,0,0-.08,3.153c.025.177.009.2-.151.177-6.006-.9-10.985-3.057-15.027-7.679-.174-.2-.27-.2-.414.014-1.768,2.661-.91,6.937,1.3,9.041.295.28.6.56.924.815a7.633,7.633,0,0,1-2.9-.815c-.176-.112-.263-.048-.279.152a4.476,4.476,0,0,0,.048.863,7.732,7.732,0,0,0,4.748,6.168,4.446,4.446,0,0,0,.963.3,8.533,8.533,0,0,1-2.843.087c-.208-.039-.286.064-.208.264,1.251,3.426,3.954,4.444,5.976,5.025.27.048.542.048.814.113-.018.023-.034.023-.048.048-.672,1.027-3,1.791-4.083,2.17a14.551,14.551,0,0,1-6.2.8c-.332-.048-.4-.046-.492,0s-.011.138.094.223c.423.28.853.528,1.292.769a20.465,20.465,0,0,0,4.142,1.665c7.447,2.064,15.832.546,21.424-5.029,4.389-4.382,5.928-10.421,5.928-16.467,0-.237.279-.367.444-.491a14.59,14.59,0,0,0,2.916-3.045.937.937,0,0,0,.192-.583v-.032C162.962,71.156,162.96,71.186,162.814,71.253Z" transform="translate(-110.804 -48.762)"/></svg>