<svg xmlns="http://www.w3.org/2000/svg" width="33.6" height="24" viewBox="0 0 33.6 24"><defs><style>.a{fill:#fff;}</style></defs><g transform="translate(-2 -6)"><g transform="translate(2 6)"><path class="a" d="M30.8,6H6.8A4.8,4.8,0,0,0,2,10.8V25.2A4.8,4.8,0,0,0,6.8,30h24a4.8,4.8,0,0,0,4.8-4.8V10.8A4.8,4.8,0,0,0,30.8,6Zm0,2.4a2.4,2.4,0,0,1,1.38.444l-12,8.028a2.4,2.4,0,0,1-2.664,0l-12-8.028A2.4,2.4,0,0,1,6.8,8.4ZM16.136,18.864a4.8,4.8,0,0,0,5.328,0l.732-.492,8.2,9.228H7.208l8.2-9.228ZM4.4,11.04l8.988,6-8.52,9.6A2.4,2.4,0,0,1,4.4,25.2Zm28.332,15.6-8.52-9.6,8.988-6V25.2a2.4,2.4,0,0,1-.468,1.416Z" transform="translate(-2 -6)"/></g></g></svg>