<svg xmlns="http://www.w3.org/2000/svg" width="26" height="26" viewBox="0 0 26 26"><defs><style>.a{fill:#ff005d;}.b{fill:#f8f8f8;}</style></defs><g transform="translate(0.422 0.029)"><circle class="a" cx="13" cy="13" r="13" transform="translate(-0.422 -0.029)"/><path class="b" d="M25.214,23.483a2.356,2.356,0,0,0-1.227.371L18.63,21.071a1.5,1.5,0,0,1,.041-.186c0-.037,0-.148-.041-.186l5.357-2.782a2.247,2.247,0,0,0,1.227.371,1.864,1.864,0,1,0-2.045-1.855.311.311,0,0,0,.041.186L17.854,19.4a2.146,2.146,0,0,0-1.227-.371,1.864,1.864,0,1,0,0,3.711,2.356,2.356,0,0,0,1.227-.371l5.357,2.783c0,.074-.041.111-.041.186a2.054,2.054,0,1,0,2.044-1.857Z" transform="translate(-9.078 -8.123)"/></g></svg>