<svg xmlns="http://www.w3.org/2000/svg" xmlns:xlink="http://www.w3.org/1999/xlink" width="27" height="26" viewBox="0 0 27 26"><defs><style>.a{fill:url(#a);}.b{fill:#fff;}</style><linearGradient id="a" x1="0.854" y1="0.146" x2="0.146" y2="0.854" gradientUnits="objectBoundingBox"><stop offset="0" stop-color="#3cf"/><stop offset="1" stop-color="#337fff"/></linearGradient></defs><g transform="translate(0.328 0.029)"><ellipse class="a" cx="13.5" cy="13" rx="13.5" ry="13" transform="translate(-0.328 -0.029)"/><path class="b" d="M140.459,69.03a5.8,5.8,0,0,1-1.419.406c.228-.038.563-.453.7-.621a2.623,2.623,0,0,0,.471-.862c.012-.025.021-.056,0-.074a.081.081,0,0,0-.076.006,7.227,7.227,0,0,1-1.682.646.112.112,0,0,1-.116-.031,1.412,1.412,0,0,0-.147-.151,2.974,2.974,0,0,0-.814-.5,2.829,2.829,0,0,0-1.25-.2,2.968,2.968,0,0,0-1.186.336,3.053,3.053,0,0,0-.956.784,2.947,2.947,0,0,0-.571,1.148,3.126,3.126,0,0,0-.031,1.213c.01.068,0,.077-.058.068a8.973,8.973,0,0,1-5.779-2.953c-.067-.078-.1-.078-.159.005a2.952,2.952,0,0,0,.5,3.477c.113.108.23.215.355.314a2.935,2.935,0,0,1-1.115-.314c-.068-.043-.1-.019-.107.058a1.721,1.721,0,0,0,.018.332,2.973,2.973,0,0,0,1.826,2.372,1.71,1.71,0,0,0,.37.114,3.282,3.282,0,0,1-1.093.034c-.08-.015-.11.025-.08.1a3.079,3.079,0,0,0,2.3,1.932c.1.019.208.019.313.043-.007.009-.013.009-.018.019a3.637,3.637,0,0,1-1.57.835,5.6,5.6,0,0,1-2.384.306c-.128-.019-.155-.018-.189,0s0,.053.036.086c.163.108.328.2.5.3a7.87,7.87,0,0,0,1.593.64,8.463,8.463,0,0,0,8.239-1.934,8.7,8.7,0,0,0,2.28-6.333c0-.091.107-.141.171-.189a5.611,5.611,0,0,0,1.121-1.171.36.36,0,0,0,.074-.224V69.03C140.516,68.993,140.515,69,140.459,69.03Z" transform="translate(-120.785 -60.41)"/></g></svg>