<svg xmlns="http://www.w3.org/2000/svg" xmlns:xlink="http://www.w3.org/1999/xlink" width="26" height="26" viewBox="0 0 26 26"><defs><style>.a{fill:url(#a);}.b,.c{fill:#fff;}.c{fill-rule:evenodd;}</style><linearGradient id="a" x1="0.705" y1="0.088" x2="0.181" y2="0.878" gradientUnits="objectBoundingBox"><stop offset="0" stop-color="#5ef67a"/><stop offset="1" stop-color="#4bb663"/></linearGradient></defs><g transform="translate(0.184 0.029)"><circle class="a" cx="13" cy="13" r="13" transform="translate(-0.184 -0.029)"/><g transform="translate(4.907 5.318)"><path class="b" d="M130.172,114.5l1.093-4.079a7.553,7.553,0,1,1,3.007,2.981Zm4.3-2.627.258.154a6.129,6.129,0,1,0-2.1-2.078l.159.26-.61,2.277Z" transform="translate(-130.172 -99.248)"/><path class="c" d="M141.12,108.3a1.263,1.263,0,0,0-1.078-.243c-.281.114-.459.553-.641.777a.268.268,0,0,1-.347.075,4.888,4.888,0,0,1-2.439-2.089.3.3,0,0,1,.039-.408,1.641,1.641,0,0,0,.442-.719,1.573,1.573,0,0,0-.2-.851,2.018,2.018,0,0,0-.629-.947.863.863,0,0,0-.936.139,1.9,1.9,0,0,0-.657,1.5,2.125,2.125,0,0,0,.059.477,3.965,3.965,0,0,0,.457,1.056,8.44,8.44,0,0,0,.478.727,7.376,7.376,0,0,0,2.073,1.925,6.236,6.236,0,0,0,1.293.614,2.867,2.867,0,0,0,1.505.238,1.821,1.821,0,0,0,1.364-1.014.882.882,0,0,0,.064-.518C141.892,108.683,141.408,108.471,141.12,108.3Z" transform="translate(-130.637 -99.717)"/></g></g></svg>