<svg xmlns="http://www.w3.org/2000/svg" width="30" height="30" viewBox="0 0 30 30"><defs><style>.a{opacity:0.7;}.b,.c{fill:#fff;}.b{opacity:0.4;}</style></defs><g transform="translate(-244.573 -549.574)"><g transform="translate(244.886 549.886)"><g class="a"><circle class="b" cx="15" cy="15" r="15" transform="translate(-0.313 -0.312)"/><circle class="b" cx="11" cy="11" r="11" transform="translate(3.687 3.688)"/></g></g><path class="c" d="M16.35,9h-.668V8.332H10.336V9H9.669a1.336,1.336,0,0,0-1.337,1.336v9.354a1.336,1.336,0,0,0,1.336,1.336H16.35a1.336,1.336,0,0,0,1.336-1.336V10.337A1.336,1.336,0,0,0,16.35,9ZM11,9h4.009v.668H11Zm6.014,10.691a.669.669,0,0,1-.668.668H9.669A.669.669,0,0,1,9,19.691V10.337a.669.669,0,0,1,.668-.668h.668v.668h5.345V9.669h.668a.669.669,0,0,1,.668.668Zm-6.682-8.018h5.345v.668H10.336Zm0,2h5.345v.668H10.336Zm0,2h5.345v.668H10.336Zm0,2h2.673v.668H10.336ZM21.028,9H19.691a.669.669,0,0,0-.668.668V19.691l1.336,1.336L21.7,19.691V9.669A.669.669,0,0,0,21.028,9Zm-1.336.668h1.336V11H19.691Zm1.336,9.746-.668.668-.668-.668V11.673h1.336Z" transform="translate(245.236 549.725)"/></g></svg>