<svg xmlns="http://www.w3.org/2000/svg" width="40" height="40" viewBox="0 0 40 40"><defs><style>.a{fill:#fff;}.b{fill:#3c3c3c;}</style></defs><circle class="a" cx="20" cy="20" r="20"/><g transform="translate(5.367 5)"><path class="b" d="M35.157,31.613a3.814,3.814,0,0,0-4.943-.332l-.879.692a1.191,1.191,0,0,1-1.537-.111l-7.47-7.5a1.17,1.17,0,0,1-.111-1.537l.658-.879A3.8,3.8,0,0,0,20.523,17l-2.077-2.077a3.42,3.42,0,0,0-4.846,0l-1.426,1.426a6.4,6.4,0,0,0-.851,8.01h0A52.467,52.467,0,0,0,27.4,40.433a6.4,6.4,0,0,0,7.989-.886l1.426-1.426a3.42,3.42,0,0,0,0-4.846Zm.2,5.04-1.426,1.426a4.327,4.327,0,0,1-5.407.6A50.321,50.321,0,0,1,13.074,23.23h0a4.32,4.32,0,0,1,.6-5.407L15.1,16.4a1.336,1.336,0,0,1,1.9,0l2.077,2.077a1.717,1.717,0,0,1,.159,2.229l-.672.886a3.254,3.254,0,0,0,.3,4.251l7.47,7.477a3.274,3.274,0,0,0,4.251.3l.879-.658a1.717,1.717,0,0,1,2.229.159l1.668,1.62a1.336,1.336,0,0,1,0,1.911Z" transform="translate(-10.293 -11.441)"/><path class="b" d="M39.8,25.638a1.038,1.038,0,0,0,2.077,0,7.165,7.165,0,0,0-7.158-7.158,1.038,1.038,0,1,0,0,2.077A5.081,5.081,0,0,1,39.8,25.638Z" transform="translate(-17.49 -12.845)"/><path class="b" d="M34.718,10.34a1.038,1.038,0,1,0,0,2.077A10.723,10.723,0,0,1,45.435,23.133a1.038,1.038,0,0,0,2.077,0A12.807,12.807,0,0,0,34.718,10.34Z" transform="translate(-17.49 -10.34)"/></g></svg>