<svg xmlns="http://www.w3.org/2000/svg" width="40" height="40" viewBox="0 0 40 40"><defs><style>.a{fill:#fff;}.b{fill:#3b3b3b;}</style></defs><circle class="a" cx="20" cy="20" r="20"/><g transform="translate(5 10)"><path class="b" d="M8,15a4,4,0,1,1,4-4A4,4,0,0,1,8,15ZM8,9a2,2,0,1,0,2,2A2,2,0,0,0,8,9Zm6,17H2a1,1,0,0,1-1-1V21a5,5,0,0,1,5-5h4a5,5,0,0,1,5,5v4A1,1,0,0,1,14,26ZM3,24H13V21a3,3,0,0,0-3-3H6a3,3,0,0,0-3,3ZM31,14a1,1,0,0,0-1-1H18a1,1,0,0,0,0,2H30A1,1,0,0,0,31,14Zm0,4a1,1,0,0,0-1-1H18a1,1,0,0,0,0,2H30A1,1,0,0,0,31,18Zm-6,4a1,1,0,0,0-1-1H18a1,1,0,0,0,0,2h6A1,1,0,0,0,25,22Z" transform="translate(-1 -7)"/></g></svg>